<?xml version="1.0" encoding="UTF-8"?>
<svg version="1.1" xmlns="http://www.w3.org/2000/svg" width="313" height="306">
<path d="M0 0 C7.41129379 -0.78747755 12.96740391 3.00813531 18.73706055 7.28222656 C22.65552689 10.70521234 26.19907063 14.47114994 29.73706055 18.28222656 C30.25501694 18.74372101 30.77297333 19.20521545 31.30662537 19.68069458 C37.27440973 26.36229586 35.08503817 40.55145224 35.1081543 49.04003906 C35.11713801 50.75536164 35.12626012 52.47068349 35.13551331 54.18600464 C35.15191938 57.76481012 35.15968902 61.34352293 35.16259766 64.92236328 C35.16799778 69.49311245 35.20578044 74.06298482 35.25134182 78.63348579 C35.28116002 82.16982172 35.28832211 85.70594662 35.28932381 89.24239731 C35.29351034 90.927225 35.30588131 92.61205423 35.32684135 94.29675674 C35.50822309 110.12301418 35.50822309 110.12301418 31.10414124 115.95187378 C27.90239197 119.06760505 25.3765294 119.63686354 21.08081055 120.09863281 C19.97608398 120.22302734 18.87135742 120.34742188 17.7331543 120.47558594 C16.57944336 120.59740234 15.42573242 120.71921875 14.23706055 120.84472656 C11.95550894 121.09327548 9.67424211 121.34445666 7.39331055 121.59863281 C6.38075195 121.7063501 5.36819336 121.81406738 4.32495117 121.92504883 C1.62802392 122.21659901 1.62802392 122.21659901 -1.26293945 123.28222656 C-3.72633988 123.51587461 -6.16920914 123.70361486 -8.63793945 123.84472656 C-9.34241211 123.88718506 -10.04688477 123.92964355 -10.77270508 123.97338867 C-17.27204757 124.3368195 -23.75483557 124.36268216 -30.26293945 124.28222656 C-30.24009888 125.82946411 -30.24009888 125.82946411 -30.21679688 127.40795898 C-30.08172503 141.20922783 -30.66876972 154.9582235 -31.37988281 168.73901367 C-31.57735292 172.63245355 -31.75516791 176.5265119 -31.93286133 180.42089844 C-32.05861334 182.91249581 -32.18552356 185.40403505 -32.3137207 187.89550781 C-32.36385818 189.05174149 -32.41399567 190.20797516 -32.46565247 191.39924622 C-33.02995985 201.5790513 -33.02995985 201.5790513 -36.26293945 206.28222656 C-37.77887695 207.45785156 -37.77887695 207.45785156 -39.32543945 208.65722656 C-42.32898095 211.34124237 -42.60367622 211.65288049 -43.26293945 215.28222656 C-43.86408734 218.58853993 -44.68515189 220.10102171 -47.26293945 222.28222656 C-50.26293945 224.28222656 -50.26293945 224.28222656 -52.26293945 224.28222656 C-52.60325195 225.36503906 -52.60325195 225.36503906 -52.95043945 226.46972656 C-54.57173367 229.94392845 -56.26216448 231.89524647 -59.26293945 234.28222656 C-62.57543945 234.59472656 -62.57543945 234.59472656 -65.26293945 234.28222656 C-65.20106445 235.02472656 -65.13918945 235.76722656 -65.07543945 236.53222656 C-65.3058177 239.91110757 -65.83618806 240.93375747 -68.26293945 243.28222656 C-77.51471929 248.91374472 -90.26479824 246.27654625 -100.6496582 245.66113281 C-102.36074516 245.56480812 -102.36074516 245.56480812 -104.10639954 245.46653748 C-107.72128471 245.26270209 -111.33587409 245.05415052 -114.95043945 244.84472656 C-118.50317008 244.64020562 -122.05595344 244.43685143 -125.60891724 244.23641968 C-127.96672513 244.10304704 -130.32437459 243.96684319 -132.68185425 243.82778931 C-138.61510092 243.48919684 -144.53391449 243.23586583 -150.47631836 243.13720703 C-152.22353935 243.0999778 -152.22353935 243.0999778 -154.00605774 243.06199646 C-156.19699678 243.02017583 -158.38841959 242.99726377 -160.57975769 242.99769592 C-167.8817166 242.84419574 -173.01748829 241.05134786 -179.26293945 237.28222656 C-179.26293945 236.62222656 -179.26293945 235.96222656 -179.26293945 235.28222656 C-179.86106445 235.01410156 -180.45918945 234.74597656 -181.07543945 234.46972656 C-183.26141799 233.2830525 -184.67626539 232.18623544 -186.26293945 230.28222656 C-186.26293945 229.62222656 -186.26293945 228.96222656 -186.26293945 228.28222656 C-186.92293945 228.28222656 -187.58293945 228.28222656 -188.26293945 228.28222656 C-192.50503967 222.31677313 -192.93842859 217.51328237 -192.26293945 210.28222656 C-192.09849838 209.6555307 -191.93405731 209.02883484 -191.76463318 208.38314819 C-191.2538071 206.24398339 -191.08172769 204.31205678 -190.99755859 202.11669922 C-190.96397247 201.29735901 -190.93038635 200.4780188 -190.89578247 199.6338501 C-190.86354584 198.74695496 -190.8313092 197.86005981 -190.7980957 196.94628906 C-190.76054169 196.01073181 -190.72298767 195.07517456 -190.68429565 194.11126709 C-190.60351122 192.0939998 -190.52447258 190.07666199 -190.44699097 188.05926514 C-190.24196354 182.74255329 -190.02169035 177.42647465 -189.80200195 172.11035156 C-189.7577861 171.03502167 -189.71357025 169.95969177 -189.66801453 168.85177612 C-189.27055371 159.27206458 -188.82331122 149.69542345 -188.3276062 140.12030029 C-188.24326074 138.4866256 -188.16033975 136.8528767 -188.07888794 135.21905518 C-187.96569923 132.95603932 -187.84756283 130.69333944 -187.7277832 128.43066406 C-187.66196045 127.16399902 -187.5961377 125.89733398 -187.52832031 124.59228516 C-187.26293945 121.28222656 -187.26293945 121.28222656 -186.76867676 118.91844177 C-186.24380193 116.18246995 -186.03879842 113.57456749 -185.90576172 110.79272461 C-185.85223038 109.71778244 -185.79869904 108.64284027 -185.74354553 107.5353241 C-185.68935959 106.3831691 -185.63517365 105.2310141 -185.5793457 104.04394531 C-185.45523274 101.59015732 -185.33087618 99.13638164 -185.20629883 96.68261719 C-185.01458859 92.82509309 -184.82533214 88.96748517 -184.640625 85.10961914 C-184.46050033 81.3790105 -184.27054012 77.64900076 -184.0793457 73.91894531 C-184.02718399 72.77286301 -183.97502228 71.6267807 -183.92127991 70.44596863 C-183.15998869 55.88188662 -183.15998869 55.88188662 -179.57543945 50.96972656 C-172.62792823 45.89992108 -166.90771635 45.9721669 -158.57543945 46.46972656 C-156.82710815 46.55383789 -156.82710815 46.55383789 -155.04345703 46.63964844 C-151.80843943 46.80007998 -148.57480155 46.97615748 -145.34118652 47.16253662 C-143.2159418 47.28493324 -141.09054698 47.40433647 -138.96508789 47.52294922 C-138.23885727 47.56354462 -137.51262665 47.60414001 -136.76438904 47.64596558 C-135.66152306 47.70761398 -135.66152306 47.70761398 -134.53637695 47.77050781 C-129.98090831 48.02520491 -125.42569821 48.28298476 -120.87109375 48.55273438 C-113.41779211 48.98771196 -105.97330709 49.35171968 -98.5090332 49.52832031 C-97.81615707 49.54577301 -97.12328094 49.56322571 -96.40940857 49.58120728 C-93.14850852 49.66152966 -89.88863828 49.7256903 -86.62695312 49.76464844 C-76.2487901 49.99173216 -76.2487901 49.99173216 -71.26293945 53.28222656 C-70.45856445 53.67410156 -69.65418945 54.06597656 -68.82543945 54.46972656 C-63.79467334 58.02807332 -59.74826217 63.22322782 -56.26293945 68.28222656 C-56.26293945 68.94222656 -56.26293945 69.60222656 -56.26293945 70.28222656 C-55.27293945 70.28222656 -54.28293945 70.28222656 -53.26293945 70.28222656 C-53.26293945 69.62222656 -53.26293945 68.96222656 -53.26293945 68.28222656 C-46.32488763 65.15330123 -39.82512667 64.61653057 -32.26293945 64.28222656 C-32.26293945 63.62222656 -32.26293945 62.96222656 -32.26293945 62.28222656 C-33.62225586 62.33443359 -33.62225586 62.33443359 -35.0090332 62.38769531 C-43.90265922 62.58533145 -51.17052659 62.60731202 -58.26293945 56.84472656 C-60.94415283 53.40942192 -61.35166987 50.55010466 -61.54418945 46.27832031 C-61.60026367 45.1674707 -61.60026367 45.1674707 -61.6574707 44.03417969 C-61.72796084 42.48731277 -61.79827245 40.94043771 -61.8684082 39.39355469 C-62.03234929 36.15147842 -62.23094226 33.37821813 -63.26293945 30.28222656 C-61.49561223 24.75932898 -58.52853732 20.83282728 -54.89575195 16.35644531 C-53.14818691 14.2377959 -53.14818691 14.2377959 -51.63793945 11.46972656 C-48.66411876 6.73864819 -45.08919061 4.98758378 -39.75341797 3.73071289 C-34.65543757 2.81266662 -29.48833022 2.55765055 -24.32543945 2.21972656 C-16.18527223 1.65721358 -8.09820187 1.00998181 0 0 Z " fill="#0C0C0D" transform="translate(236.262939453125,26.7177734375)"/>
<path d="M0 0 C10.93995226 -0.23991632 21.73403557 0.4319213 32.6378479 1.22543335 C51.09011741 2.56340821 69.50362189 3.55997132 88 4 C88 7.96 88 11.92 88 16 C91.63 16 95.26 16 99 16 C99 19.63 99 23.26 99 27 C101.64 27 104.28 27 107 27 C107 31.62 107 36.24 107 41 C109.31 41 111.62 41 114 41 C114.2351382 58.50582139 113.5504539 75.91627413 112.60931396 93.39300537 C112.42393813 96.86008199 112.24551831 100.32751703 112.06640625 103.79492188 C111.71750956 110.53030117 111.36128416 117.26527403 111 124 C108.03 123.34 105.06 122.68 102 122 C102 127.61 102 133.22 102 139 C98.7 139 95.4 139 92 139 C92 141.31 92 143.62 92 146 C88.37 146 84.74 146 81 146 C80.505 152.435 80.505 152.435 80 159 C64.66829308 159.29473099 49.38635209 158.44842286 34.08001709 157.66760254 C31.29304999 157.52677806 28.50583908 157.39116522 25.71861267 157.25558567 C22.35392823 157.09126964 18.98947484 156.92246077 15.625 156.75390625 C14.39048096 156.6934462 13.15596191 156.63298615 11.8840332 156.57069397 C5.55333363 156.24492152 -0.70875054 155.78093333 -7 155 C-7.19928155 140.75036254 -6.67203923 126.61131909 -5.83224487 112.38742065 C-5.47425435 106.3201376 -5.13500354 100.25179348 -4.79296875 94.18359375 C-4.72414993 92.97149734 -4.65533112 91.75940094 -4.58442688 90.51057434 C-3.97129932 79.65569948 -3.4383006 68.79806056 -2.9375 57.9375 C-2.78310096 54.60544304 -2.62818841 51.27341052 -2.47265625 47.94140625 C-2.4349411 47.13341583 -2.39722595 46.32542542 -2.35836792 45.49295044 C-1.64425216 30.32510155 -0.81598626 15.16265141 0 0 Z " fill="#2D55EC" transform="translate(68,89)"/>
<path d="M0 0 C0 1.98 0 3.96 0 6 C1.65 6 3.3 6 5 6 C5 7.65 5 9.3 5 11 C6.98 11 8.96 11 11 11 C12.29901921 19.04927976 13.33853295 26.83759432 13 35 C11.68 35 10.36 35 9 35 C9 36.65 9 38.3 9 40 C7.35 40 5.7 40 4 40 C4 42.64 4 45.28 4 48 C5.98 48 7.96 48 10 48 C10 49.65 10 51.3 10 53 C11.98 53 13.96 53 16 53 C17.44796872 61.73952546 18.29211698 70.13911833 18 79 C16.515 79.495 16.515 79.495 15 80 C14.67 81.98 14.34 83.96 14 86 C12.68 86 11.36 86 10 86 C10 88.31 10 90.62 10 93 C4.87772391 93.57526159 -0.24515334 94.14471814 -5.36865234 94.70898438 C-7.10873497 94.90142996 -8.84864812 95.09541488 -10.58837891 95.29101562 C-13.10014727 95.57313975 -15.61248863 95.84958097 -18.125 96.125 C-19.27705933 96.25624268 -19.27705933 96.25624268 -20.45239258 96.39013672 C-25.33186363 96.91807775 -30.09172443 97.07790914 -35 97 C-35 95.35 -35 93.7 -35 92 C-36.98 92 -38.96 92 -41 92 C-41 90.02 -41 88.04 -41 86 C-42.98 86 -44.96 86 -47 86 C-47.88021369 79.28837062 -48.11381955 72.76594019 -48 66 C-45.43795456 65.66280953 -42.87545682 65.33012847 -40.3125 65 C-39.59126953 64.90460938 -38.87003906 64.80921875 -38.12695312 64.7109375 C-34.39007129 64.23316265 -30.77708469 63.88080206 -27 64 C-27 65.98 -27 67.96 -27 70 C-26.34 70 -25.68 70 -25 70 C-24.67 71.65 -24.34 73.3 -24 75 C-22.97519531 74.855625 -21.95039063 74.71125 -20.89453125 74.5625 C-19.53387846 74.37482375 -18.17320001 74.18733358 -16.8125 74 C-16.13896484 73.90460938 -15.46542969 73.80921875 -14.77148438 73.7109375 C-11.1082905 73.21059882 -7.71764056 73 -4 73 C-4.66 67.06 -5.32 61.12 -6 55 C-14.415 55.495 -14.415 55.495 -23 56 C-23.33 50.39 -23.66 44.78 -24 39 C-16.125 37.875 -16.125 37.875 -12.0625 37.9375 C-11.29035156 37.94652344 -10.51820313 37.95554688 -9.72265625 37.96484375 C-9.15417969 37.97644531 -8.58570313 37.98804688 -8 38 C-8.2475 36.3603125 -8.2475 36.3603125 -8.5 34.6875 C-9.16622112 29.46094841 -9.08701543 24.2595992 -9 19 C-10.01320312 19.144375 -11.02640625 19.28875 -12.0703125 19.4375 C-13.42184545 19.62521291 -14.77340964 19.81270096 -16.125 20 C-16.79015625 20.09539063 -17.4553125 20.19078125 -18.140625 20.2890625 C-22.18849 20.84465181 -25.87520387 21 -30 21 C-30 25.29 -30 29.58 -30 34 C-32.72876308 34.33695862 -35.45793163 34.66968429 -38.1875 35 C-39.34088867 35.14308594 -39.34088867 35.14308594 -40.51757812 35.2890625 C-44.36928811 35.75192894 -48.11170851 36.12467468 -52 36 C-53.53266582 32.93466836 -53.10276471 29.73245728 -53.0625 26.375 C-53.05798828 25.66859375 -53.05347656 24.9621875 -53.04882812 24.234375 C-53.03703875 22.48954725 -53.01910324 20.744763 -53 19 C-51.35 19 -49.7 19 -48 19 C-48 16.69 -48 14.38 -48 12 C-46.68 12 -45.36 12 -44 12 C-44.020625 10.865625 -44.04125 9.73125 -44.0625 8.5625 C-44 5 -44 5 -43 4 C-40.5076546 3.6255301 -38.03076597 3.30765037 -35.52734375 3.02734375 C-34.3926339 2.8962899 -34.3926339 2.8962899 -33.23500061 2.7625885 C-31.62704673 2.57809259 -30.01883621 2.39582224 -28.41040039 2.21557617 C-25.97136405 1.94130799 -23.533545 1.6577132 -21.09570312 1.37304688 C-19.53131481 1.19474292 -17.96686339 1.01699171 -16.40234375 0.83984375 C-15.32061134 0.71330666 -15.32061134 0.71330666 -14.21702576 0.58421326 C-9.44971186 0.05846154 -4.7965209 -0.072455 0 0 Z " fill="#E55DB5" transform="translate(240,39)"/>
<path d="M0 0 C4.52081966 -0.02917237 9.04161488 -0.0468568 13.5625 -0.0625 C14.83931641 -0.07087891 16.11613281 -0.07925781 17.43164062 -0.08789062 C19.29272461 -0.09272461 19.29272461 -0.09272461 21.19140625 -0.09765625 C22.89598999 -0.10551147 22.89598999 -0.10551147 24.63500977 -0.11352539 C28 0 28 0 35 1 C35 6.94 35 12.88 35 19 C38.3 19 41.6 19 45 19 C45.02496148 24.06794894 45.0429822 29.13586106 45.05493164 34.20385742 C45.05992009 35.92326482 45.06671324 37.64266806 45.07543945 39.36206055 C45.1213132 48.64204952 45.06516755 57.76575215 44 67 C40.37 67 36.74 67 33 67 C33.33 67.66 33.66 68.32 34 69 C34.07116382 71.37402501 34.08409085 73.75000677 34.0625 76.125 C34.05347656 77.40632813 34.04445312 78.68765625 34.03515625 80.0078125 C34.02355469 80.99523437 34.01195312 81.98265625 34 83 C20.9551135 83.11578302 8.0162744 82.89000167 -5 82 C-5.12306045 72.43359252 -4.750577 62.94460823 -4.16015625 53.3984375 C-4.07264721 51.94448163 -3.98536629 50.49051201 -3.89830017 49.03652954 C-3.71673403 46.01947151 -3.53237115 43.00260148 -3.34594727 39.98583984 C-3.10732647 36.1204908 -2.87601028 32.25474359 -2.6467371 28.38883018 C-2.46865654 25.39985161 -2.28671865 22.41111748 -2.10360527 19.42244339 C-2.01668298 17.99596061 -1.93097506 16.56940328 -1.84651375 15.14277267 C-1.72851674 13.15923405 -1.60475177 11.17604107 -1.48071289 9.19287109 C-1.41187393 8.06626068 -1.34303497 6.93965027 -1.27210999 5.77890015 C-1 3 -1 3 0 0 Z " fill="#000103" transform="translate(103,128)"/>
<path d="M0 0 C13.99393004 -0.18658573 27.83225845 0.18545091 41.78991699 1.07556152 C56.52183929 2.01448642 71.24383624 2.57455674 86 3 C86 6.96 86 10.92 86 15 C89.63 15 93.26 15 97 15 C97 18.63 97 22.26 97 26 C99.64 26 102.28 26 105 26 C105 30.62 105 35.24 105 40 C107.31 40 109.62 40 112 40 C112.2351382 57.50582139 111.5504539 74.91627413 110.60931396 92.39300537 C110.42393813 95.86008199 110.24551831 99.32751703 110.06640625 102.79492188 C109.71750956 109.53030117 109.36128416 116.26527403 109 123 C107.515 122.505 107.515 122.505 106 122 C105.70866447 103.76463689 106.45470225 85.78952233 107.75634766 67.60205078 C108.1177872 62.25868498 108.38342799 56.91245889 108.625 51.5625 C108.66488037 50.68029785 108.70476074 49.7980957 108.74584961 48.88916016 C108.83284643 46.92620649 108.91683551 44.96311976 109 43 C107.02 43 105.04 43 103 43 C103 42.01 103 41.02 103 40 C102.34 40 101.68 40 101 40 C101 36.37 101 32.74 101 29 C99.02 29 97.04 29 95 29 C95 28.01 95 27.02 95 26 C94.34 26 93.68 26 93 26 C92.505 22.535 92.505 22.535 92 19 C90.906875 19.0825 89.81375 19.165 88.6875 19.25 C85 19 85 19 83.125 17.4375 C81.69478255 14.33869552 81.43248658 11.36946363 81 8 C80.41508789 7.97494385 79.83017578 7.9498877 79.22753906 7.92407227 C76.56815529 7.80777038 73.90909597 7.68519933 71.25 7.5625 C70.32960938 7.52318359 69.40921875 7.48386719 68.4609375 7.44335938 C67.57148438 7.40146484 66.68203125 7.35957031 65.765625 7.31640625 C64.54020996 7.26141968 64.54020996 7.26141968 63.29003906 7.20532227 C61 7 61 7 59.13012695 6.49291992 C54.25159748 5.36400863 49.04032487 5.77380053 44.0456543 5.75976562 C41.94084808 5.75001551 39.83700109 5.71894463 37.73242188 5.6875 C36.39323494 5.68097339 35.05404106 5.67572157 33.71484375 5.671875 C32.49917725 5.6625293 31.28351074 5.65318359 30.03100586 5.64355469 C26.72476953 6.03236701 26.03488119 6.51250813 24 9 C22.125 8.75 22.125 8.75 20 8 C18.33480481 7.65939189 16.66842534 7.32441604 15 7 C15.12375 7.7425 15.2475 8.485 15.375 9.25 C15.25125 10.1575 15.1275 11.065 15 12 C12.0625 14.125 12.0625 14.125 9 16 C8.67 16.99 8.34 17.98 8 19 C6.4375 20.6875 6.4375 20.6875 5 22 C5.66 22 6.32 22 7 22 C7 23.32 7 24.64 7 26 C5.68 26 4.36 26 3 26 C3 30.29 3 34.58 3 39 C1.515 39.495 1.515 39.495 0 40 C0 26.8 0 13.6 0 0 Z " fill="#54A2EB" transform="translate(70,90)"/>
<path d="M0 0 C4.62 0 9.24 0 14 0 C14 0.33 14 0.66 14 1 C10.04 1 6.08 1 2 1 C2.33 1.66 2.66 2.32 3 3 C3.09974862 5.51131811 3.13884704 7.98907086 3.125 10.5 C3.12886719 11.1703125 3.13273437 11.840625 3.13671875 12.53125 C3.12980895 16.17962437 2.94876944 19.7496148 2.53881836 23.37524414 C1.85400818 30.03818169 1.55652131 36.71314555 1.24609375 43.40234375 C1.18021077 44.79633775 1.11428676 46.19032981 1.04832458 47.58432007 C0.87502178 51.27634623 0.70665654 54.96858032 0.54024506 58.660923 C0.43729746 60.94198788 0.33309456 63.22299321 0.2288208 65.5039978 C-0.6182459 84.14592345 -1.35701922 102.76161564 -1.06469727 121.42749023 C-1.04592529 122.64380127 -1.02715332 123.8601123 -1.0078125 125.11328125 C-0.98348145 126.12173096 -0.95915039 127.13018066 -0.93408203 128.16918945 C-1.00466004 131.20012271 -1.44984307 134.02169719 -2 137 C-2.23291734 139.08072825 -2.44158637 141.16432505 -2.625 143.25 C-2.72039062 144.28640625 -2.81578125 145.3228125 -2.9140625 146.390625 C-3.20686395 148.98328249 -3.20686395 148.98328249 -2 151 C0.98720988 151.48166648 0.98720988 151.48166648 4.6875 151.625 C5.7240271 151.68300781 5.7240271 151.68300781 6.78149414 151.7421875 C14.15008496 152.10292717 21.5241257 152.05457144 28.89916992 151.96337891 C30.26199097 151.95056885 30.26199097 151.95056885 31.65234375 151.9375 C32.87425415 151.92009766 32.87425415 151.92009766 34.12084961 151.90234375 C36 152 36 152 37 153 C46.55170998 154.27777568 56.28373988 154.29535681 65.90429688 154.51757812 C67.00708984 154.55173828 68.10988281 154.58589844 69.24609375 154.62109375 C70.23279053 154.6461499 71.2194873 154.67120605 72.23608398 154.69702148 C75.13556405 155.01486044 77.35673281 155.79429389 80 157 C80 157.66 80 158.32 80 159 C64.66829308 159.29473099 49.38635209 158.44842286 34.08001709 157.66760254 C31.29304999 157.52677806 28.50583908 157.39116522 25.71861267 157.25558567 C22.35392823 157.09126964 18.98947484 156.92246077 15.625 156.75390625 C14.39048096 156.6934462 13.15596191 156.63298615 11.8840332 156.57069397 C5.55333363 156.24492152 -0.70875054 155.78093333 -7 155 C-7.19928155 140.75036254 -6.67203923 126.61131909 -5.83224487 112.38742065 C-5.47425435 106.3201376 -5.13500354 100.25179348 -4.79296875 94.18359375 C-4.72414993 92.97149734 -4.65533112 91.75940094 -4.58442688 90.51057434 C-3.97129932 79.65569948 -3.4383006 68.79806056 -2.9375 57.9375 C-2.78310096 54.60544304 -2.62818841 51.27341052 -2.47265625 47.94140625 C-2.4349411 47.13341583 -2.39722595 46.32542542 -2.35836792 45.49295044 C-1.64425165 30.32509079 -0.81445558 15.16273688 0 0 Z " fill="#1A1D7B" transform="translate(68,89)"/>
<path d="M0 0 C1.78531128 0.08689087 1.78531128 0.08689087 3.60668945 0.17553711 C7.13470064 0.35090261 10.66090793 0.54832079 14.1875 0.75 C16.11192462 0.85130191 18.03639937 0.95165902 19.9609375 1.05078125 C24.03774418 1.26487709 28.11276443 1.49965677 32.1875 1.75 C32.1875 2.08 32.1875 2.41 32.1875 2.75 C31.64150146 2.74555878 31.09550293 2.74111755 30.53295898 2.73654175 C24.82229239 2.69210798 19.11167536 2.66205075 13.40087891 2.64013672 C11.27292891 2.63011295 9.14499256 2.61649039 7.01708984 2.59912109 C3.94885882 2.57471308 0.8808108 2.56348039 -2.1875 2.5546875 C-3.13052979 2.54436493 -4.07355957 2.53404236 -5.04516602 2.52340698 C-10.65204512 2.52246623 -15.43115304 3.15654788 -20.8125 4.75 C-23.41054367 13.62479133 -24.43472312 22.10835066 -24.88745117 31.32421875 C-24.96571786 32.74497893 -25.04500738 34.16568308 -25.12522888 35.58633423 C-25.33809154 39.40810805 -25.5365687 43.23050211 -25.73211455 47.05319595 C-25.94023078 51.07585896 -26.16126765 55.09781391 -26.38069153 59.11987305 C-26.74717306 65.8708589 -27.1049982 72.62225671 -27.45678711 79.37402344 C-27.90674747 88.00929359 -28.37045081 96.64376674 -28.83872509 105.27806091 C-29.24345786 112.74169884 -29.64247732 120.2056406 -30.0402739 127.66965103 C-30.1672802 130.04959731 -30.29493395 132.42950828 -30.4226284 134.80941772 C-30.62373037 138.56531791 -30.82126451 142.32139091 -31.01616859 146.07761765 C-31.12143524 148.09348963 -31.22972081 150.10920328 -31.33813477 152.12490845 C-32.73843869 166.71981923 -32.73843869 166.71981923 -29.8125 180.75 C-29.1525 180.75 -28.4925 180.75 -27.8125 180.75 C-26.12517723 182.73260426 -24.45883943 184.7332342 -22.8125 186.75 C-22.1525 187.08 -21.4925 187.41 -20.8125 187.75 C-20.8125 188.41 -20.8125 189.07 -20.8125 189.75 C-18.5025 190.41 -16.1925 191.07 -13.8125 191.75 C-13.8125 192.41 -13.8125 193.07 -13.8125 193.75 C-13.15824539 193.74238647 -12.50399078 193.73477295 -11.82991028 193.72692871 C-4.78091595 193.68116941 2.20448357 193.96703353 9.23828125 194.40625 C11.55669213 194.54379867 13.87513413 194.6808238 16.19360352 194.81738281 C17.38881622 194.88848267 18.58402893 194.95958252 19.81546021 195.03283691 C54.10175319 198.3362407 54.10175319 198.3362407 88.1875 195.75 C88.32285156 195.12351562 88.45820313 194.49703125 88.59765625 193.8515625 C89.26819771 191.30591408 89.95916094 189.08212626 91.1875 186.75 C94.625 185.4375 94.625 185.4375 98.1875 184.75 C100.7325507 182.69982027 102.10718554 180.88814088 103.75 178.0625 C105.1875 175.75 105.1875 175.75 108.1875 174.75 C108.8475 173.76 109.5075 172.77 110.1875 171.75 C110.8475 171.75 111.5075 171.75 112.1875 171.75 C112.19007813 171.14671875 112.19265625 170.5434375 112.1953125 169.921875 C112.31698149 167.40738251 112.52279702 165.18163497 113.1875 162.75 C116.1875 160.375 116.1875 160.375 119.1875 158.75 C119.5175 157.76 119.8475 156.77 120.1875 155.75 C120.8475 155.75 121.5075 155.75 122.1875 155.75 C122.0625 157.4375 122.0625 157.4375 121.1875 159.75 C119.65755208 160.921875 118.12760417 162.09375 116.59765625 163.265625 C114.87625442 165.07762693 114.62294781 166.31149224 114.1875 168.75 C113.58635212 172.05631336 112.76528756 173.56879514 110.1875 175.75 C107.1875 177.75 107.1875 177.75 105.1875 177.75 C104.8471875 178.8328125 104.8471875 178.8328125 104.5 179.9375 C102.87870579 183.41170188 101.18827497 185.36301991 98.1875 187.75 C94.875 188.0625 94.875 188.0625 92.1875 187.75 C92.249375 188.4925 92.31125 189.235 92.375 190 C92.14462175 193.37888101 91.6142514 194.40153091 89.1875 196.75 C79.93572017 202.38151816 67.18564122 199.74431969 56.80078125 199.12890625 C55.08969429 199.03258156 55.08969429 199.03258156 53.34403992 198.93431091 C49.72915475 198.73047553 46.11456536 198.52192396 42.5 198.3125 C38.94726937 198.10797906 35.39448601 197.90462487 31.84152222 197.70419312 C29.48371433 197.57082048 27.12606486 197.43461663 24.76858521 197.29556274 C18.83533854 196.95697027 12.91652496 196.70363927 6.97412109 196.60498047 C5.2269001 196.56775124 5.2269001 196.56775124 3.44438171 196.5297699 C1.25344267 196.48794927 -0.93798014 196.4650372 -3.12931824 196.46546936 C-10.43127715 196.31196918 -15.56704884 194.5191213 -21.8125 190.75 C-21.8125 190.09 -21.8125 189.43 -21.8125 188.75 C-22.410625 188.481875 -23.00875 188.21375 -23.625 187.9375 C-25.81097854 186.75082594 -27.22582594 185.65400887 -28.8125 183.75 C-28.8125 183.09 -28.8125 182.43 -28.8125 181.75 C-29.4725 181.75 -30.1325 181.75 -30.8125 181.75 C-35.05460022 175.78454657 -35.48798913 170.98105581 -34.8125 163.75 C-34.64805893 163.12330414 -34.48361786 162.49660828 -34.31419373 161.85092163 C-33.80336765 159.71175682 -33.63128824 157.77983021 -33.54711914 155.58447266 C-33.51353302 154.76513245 -33.4799469 153.94579224 -33.44534302 153.10162354 C-33.41310638 152.21472839 -33.38086975 151.32783325 -33.34765625 150.4140625 C-33.31010223 149.47850525 -33.27254822 148.542948 -33.2338562 147.57904053 C-33.15307176 145.56177323 -33.07403313 143.54443543 -32.99655151 141.52703857 C-32.79152408 136.21032673 -32.5712509 130.89424809 -32.3515625 125.578125 C-32.30734665 124.5027951 -32.2631308 123.42746521 -32.21757507 122.31954956 C-31.82011426 112.73983802 -31.37287177 103.16319689 -30.87716675 93.58807373 C-30.79282128 91.95439904 -30.7099003 90.32065014 -30.62844849 88.68682861 C-30.51525978 86.42381276 -30.39712338 84.16111288 -30.27734375 81.8984375 C-30.211521 80.63177246 -30.14569824 79.36510742 -30.07788086 78.06005859 C-29.8125 74.75 -29.8125 74.75 -29.3182373 72.38621521 C-28.79336247 69.65024339 -28.58835897 67.04234093 -28.45532227 64.26049805 C-28.40179092 63.18555588 -28.34825958 62.11061371 -28.29310608 61.00309753 C-28.23892014 59.85094254 -28.18473419 58.69878754 -28.12890625 57.51171875 C-28.00479329 55.05793076 -27.88043673 52.60415508 -27.75585938 50.15039062 C-27.56414914 46.29286653 -27.37489269 42.43525861 -27.19018555 38.57739258 C-27.01006087 34.84678394 -26.82010066 31.1167742 -26.62890625 27.38671875 C-26.57674454 26.24063644 -26.52458282 25.09455414 -26.47084045 23.91374207 C-25.70954923 9.34966006 -25.70954923 9.34966006 -22.125 4.4375 C-14.86287871 -0.86188581 -8.71671948 -0.51881623 0 0 Z " fill="#D5D5D5" transform="translate(78.8125,73.25)"/>
<path d="M0 0 C16.03819024 -0.14193089 31.94664172 0.27607961 47.95898438 1.171875 C51.68308942 1.37821859 55.40781166 1.56840568 59.1328125 1.7578125 C61.51828138 1.88706078 63.9037004 2.01723336 66.2890625 2.1484375 C67.94671127 2.23138565 67.94671127 2.23138565 69.6378479 2.31600952 C71.17763809 2.40587631 71.17763809 2.40587631 72.74853516 2.49755859 C74.09342514 2.57083878 74.09342514 2.57083878 75.46548462 2.64559937 C78.22496257 3.03145646 80.4630118 3.8685243 83 5 C83 5.33 83 5.66 83 6 C80.14576808 6.02718316 77.29179985 6.04692705 74.4375 6.0625 C73.23770508 6.07506836 73.23770508 6.07506836 72.01367188 6.08789062 C71.22412109 6.09111328 70.43457031 6.09433594 69.62109375 6.09765625 C68.54492798 6.10551147 68.54492798 6.10551147 67.44702148 6.11352539 C65 6 65 6 61.70507812 5.51367188 C57.82732929 4.97606094 54.00448487 4.77881368 50.09765625 4.68359375 C49.3750914 4.66281265 48.65252655 4.64203156 47.9080658 4.62062073 C45.6262963 4.55584574 43.34442333 4.4965797 41.0625 4.4375 C39.50454709 4.39424603 37.9466042 4.35062969 36.38867188 4.30664062 C32.59255078 4.20023961 28.79632686 4.09877501 25 4 C24.67 5.65 24.34 7.3 24 9 C23.443125 8.855625 22.88625 8.71125 22.3125 8.5625 C19.88615805 7.97230872 17.45093655 7.476571 15 7 C15.12375 7.7425 15.2475 8.485 15.375 9.25 C15.25125 10.1575 15.1275 11.065 15 12 C12.0625 14.125 12.0625 14.125 9 16 C8.67 16.99 8.34 17.98 8 19 C6.4375 20.6875 6.4375 20.6875 5 22 C5.66 22 6.32 22 7 22 C7 23.32 7 24.64 7 26 C5.68 26 4.36 26 3 26 C3 30.29 3 34.58 3 39 C1.515 39.495 1.515 39.495 0 40 C0 26.8 0 13.6 0 0 Z " fill="#5FA8EE" transform="translate(70,90)"/>
<path d="M0 0 C4.62 0 9.24 0 14 0 C14 0.33 14 0.66 14 1 C10.04 1 6.08 1 2 1 C2.33 1.66 2.66 2.32 3 3 C3.09974862 5.51131811 3.13884704 7.98907086 3.125 10.5 C3.12886719 11.1703125 3.13273437 11.840625 3.13671875 12.53125 C3.12980895 16.17962437 2.94876944 19.7496148 2.53881836 23.37524414 C1.85400818 30.03818169 1.55652131 36.71314555 1.24609375 43.40234375 C1.18021077 44.79633775 1.11428676 46.19032981 1.04832458 47.58432007 C0.87502178 51.27634623 0.70665654 54.96858032 0.54024506 58.660923 C0.43729746 60.94198788 0.33309456 63.22299321 0.2288208 65.5039978 C-0.6182459 84.14592345 -1.35701922 102.76161564 -1.06469727 121.42749023 C-1.04592529 122.64380127 -1.02715332 123.8601123 -1.0078125 125.11328125 C-0.98348145 126.12173096 -0.95915039 127.13018066 -0.93408203 128.16918945 C-1.00464534 131.19949154 -1.44525799 134.02324031 -2 137 C-2.20106057 138.62337793 -2.38997566 140.24834189 -2.5625 141.875 C-2.64628906 142.65617188 -2.73007813 143.43734375 -2.81640625 144.2421875 C-2.87699219 144.82226562 -2.93757813 145.40234375 -3 146 C-3.33 146 -3.66 146 -4 146 C-4.20412725 142.25072404 -4.38483925 138.50061574 -4.5625 134.75 C-4.61857422 133.72519531 -4.67464844 132.70039063 -4.73242188 131.64453125 C-5.07914281 124.01667073 -4.83590069 116.51723028 -4.40525818 108.90383911 C-4.06859555 102.82276176 -3.87644052 96.75365714 -3.7890625 90.6640625 C-3.77585968 89.78238907 -3.76265686 88.90071564 -3.74905396 87.99232483 C-3.72189866 86.15578617 -3.69502854 84.31924328 -3.66842651 82.48269653 C-3.24993919 54.94399564 -1.69384265 27.48550498 0 0 Z " fill="#2748B4" transform="translate(68,89)"/>
<path d="M0 0 C1.32 0 2.64 0 4 0 C4.36897594 16.91652198 3.28399772 33.7120519 2.14575195 50.57769775 C1.89965888 54.24549446 1.66113149 57.91378337 1.421875 61.58203125 C0.95511734 68.72183929 0.48029021 75.86108839 0 83 C5.19065697 83.62012616 10.33838328 84.13250594 15.56640625 84.31640625 C16.71044922 84.35830078 17.85449219 84.40019531 19.03320312 84.44335938 C20.19787109 84.48267578 21.36253906 84.52199219 22.5625 84.5625 C24.36170898 84.62727539 24.36170898 84.62727539 26.19726562 84.69335938 C29.13141793 84.79856802 32.0656425 84.90070883 35 85 C35 85.66 35 86.32 35 87 C22.95246079 87.11902069 11.01818577 86.86173931 -1 86 C-1 85.01 -1 84.02 -1 83 C-1.66 83 -2.32 83 -3 83 C-2.73375021 75.5191147 -2.46719025 68.0382405 -2.20043945 60.55737305 C-2.11020295 58.02579992 -2.02003106 55.49422449 -1.92993164 52.96264648 C-1.30153522 35.30786659 -0.65900823 17.65366445 0 0 Z " fill="#556AEF" transform="translate(98,127)"/>
<path d="M0 0 C12.05276854 -0.11114233 23.97960136 0.05985709 36 1 C36 1.99 36 2.98 36 4 C36.66 4 37.32 4 38 4 C38 8.95 38 13.9 38 19 C40.97 19 43.94 19 47 19 C50.09304012 28.27912035 47.94652152 40.81865429 47.5625 50.5 C47.50376709 52.02113403 47.50376709 52.02113403 47.44384766 53.57299805 C47.2056952 59.10114625 46.77619527 64.52097459 46 70 C45.34 70 44.68 70 44 70 C44.33 54.16 44.66 38.32 45 22 C41.7 22 38.4 22 35 22 C35 16.06 35 10.12 35 4 C23.45 3.67 11.9 3.34 0 3 C-0.33 3.99 -0.66 4.98 -1 6 C-0.67 4.02 -0.34 2.04 0 0 Z " fill="#193588" transform="translate(103,125)"/>
<path d="M0 0 C0.33 0 0.66 0 1 0 C0.41159306 23.02680312 -0.66484921 46.00508858 -2 69 C-2.99 68.67 -3.98 68.34 -5 68 C-5.23296173 53.41838786 -5.04769881 38.9260436 -4.125 24.375 C-4.04652832 23.07876709 -3.96805664 21.78253418 -3.88720703 20.44702148 C-2.67724092 2.67724092 -2.67724092 2.67724092 0 0 Z " fill="#5A7AE9" transform="translate(181,144)"/>
<path d="M0 0 C1.48811237 0.003884 2.97622311 0.02026851 4.46411133 0.04638672 C5.26358688 0.05397003 6.06306244 0.06155334 6.88676453 0.06936646 C15.07835586 0.17609826 23.25815972 0.523272 31.4375 0.97070312 C33.90234745 1.10342759 36.36765053 1.22156501 38.83325195 1.33935547 C40.42118888 1.42311772 42.00908175 1.50772036 43.59692383 1.59326172 C44.68750847 1.6433992 44.68750847 1.6433992 45.80012512 1.69454956 C49.75561501 1.92580876 52.96453368 2.50882262 56.54614258 4.22607422 C56.54614258 4.55607422 56.54614258 4.88607422 56.54614258 5.22607422 C53.69191066 5.25325738 50.83794243 5.27300127 47.98364258 5.28857422 C46.78384766 5.30114258 46.78384766 5.30114258 45.55981445 5.31396484 C44.77026367 5.3171875 43.98071289 5.32041016 43.16723633 5.32373047 C42.09107056 5.33158569 42.09107056 5.33158569 40.99316406 5.33959961 C38.54614258 5.22607422 38.54614258 5.22607422 35.2512207 4.73974609 C31.37347186 4.20213516 27.55062745 4.0048879 23.64379883 3.90966797 C22.92123398 3.88888687 22.19866913 3.86810577 21.45420837 3.84669495 C19.17243888 3.78191996 16.89056591 3.72265392 14.60864258 3.66357422 C13.05068967 3.62032025 11.49274678 3.57670391 9.93481445 3.53271484 C6.13869336 3.42631383 2.34246944 3.32484923 -1.45385742 3.22607422 C-1.78385742 4.87607422 -2.11385742 6.52607422 -2.45385742 8.22607422 C-3.44385742 8.22607422 -4.43385742 8.22607422 -5.45385742 8.22607422 C-5.57885742 5.35107422 -5.57885742 5.35107422 -5.45385742 2.22607422 C-3.45385742 0.22607422 -3.45385742 0.22607422 0 0 Z " fill="#78BEF0" transform="translate(96.453857421875,90.77392578125)"/>
<path d="M0 0 C0.33 0 0.66 0 1 0 C1.02317818 12.02206577 1.04094305 24.04412622 1.05181217 36.06620979 C1.057029 41.64864008 1.0641049 47.23105508 1.07543945 52.81347656 C1.08631092 58.20158921 1.09228589 63.58968714 1.09487724 68.97780991 C1.0967238 71.03267524 1.10032964 73.08753977 1.10573006 75.14239883 C1.11299697 78.0221963 1.11398855 80.90193311 1.11352539 83.78173828 C1.11712067 84.62978531 1.12071594 85.47783234 1.12442017 86.35157776 C1.11688318 90.68716537 0.84760281 94.7287115 0 99 C-0.20106057 100.62337793 -0.38997566 102.24834189 -0.5625 103.875 C-0.64628906 104.65617187 -0.73007813 105.43734375 -0.81640625 106.2421875 C-0.87699219 106.82226562 -0.93757813 107.40234375 -1 108 C-1.33 108 -1.66 108 -2 108 C-2.20412725 104.25072404 -2.38483925 100.50061574 -2.5625 96.75 C-2.61857422 95.72519531 -2.67464844 94.70039063 -2.73242188 93.64453125 C-3.07653462 86.07405092 -2.84199273 78.63200503 -2.4143219 71.0760498 C-2.04995307 64.49387348 -1.84405486 57.9190324 -1.71875 51.328125 C-1.69977158 50.33907166 -1.68079315 49.35001831 -1.66123962 48.33099365 C-1.58636357 44.28371259 -1.51683511 40.23634841 -1.44775391 36.18896484 C-1.23693002 24.09850516 -0.90445532 12.06086776 0 0 Z " fill="#1E2E8F" transform="translate(66,127)"/>
<path d="M0 0 C0.66 0 1.32 0 2 0 C2.99 3.96 3.98 7.92 5 12 C9.62 12 14.24 12 19 12 C19 12.99 19 13.98 19 15 C19.66 15 20.32 15 21 15 C21 17.97 21 20.94 21 24 C21.66 24 22.32 24 23 24 C23 26.97 23 29.94 23 33 C21.515 33.495 21.515 33.495 20 34 C19.34 28.06 18.68 22.12 18 16 C9.585 16.495 9.585 16.495 1 17 C0.67 11.39 0.34 5.78 0 0 Z " fill="#B03898" transform="translate(216,78)"/>
<path d="M0 0 C1.32 0 2.64 0 4 0 C4 3.63 4 7.26 4 11 C6.64 11 9.28 11 12 11 C12 15.62 12 20.24 12 25 C14.31 25 16.62 25 19 25 C19.08097324 27.27024968 19.13917704 29.54132075 19.1875 31.8125 C19.23970703 33.70935547 19.23970703 33.70935547 19.29296875 35.64453125 C19 39 19 39 16 42 C16 37.38 16 32.76 16 28 C14.02 28 12.04 28 10 28 C10 27.01 10 26.02 10 25 C9.34 25 8.68 25 8 25 C8 21.37 8 17.74 8 14 C6.02 14 4.04 14 2 14 C2.33 9.71 2.66 5.42 3 1 C2.01 0.67 1.02 0.34 0 0 Z " fill="#5E9AD9" transform="translate(163,105)"/>
<path d="M0 0 C0.66 0 1.32 0 2 0 C2 4.95 2 9.9 2 15 C4.97 15 7.94 15 11 15 C14.09304012 24.27912035 11.94652152 36.81865429 11.5625 46.5 C11.52334473 47.51408936 11.48418945 48.52817871 11.44384766 49.57299805 C11.2056952 55.10114625 10.77619527 60.52097459 10 66 C9.34 66 8.68 66 8 66 C8.1204717 61.45074058 8.24479266 56.90160633 8.37231445 52.35253906 C8.41497699 50.81285279 8.45668147 49.2731396 8.49731445 47.73339844 C8.77781292 37.13678986 9.26611949 26.57508303 10 16 C6.7 16 3.4 16 0 16 C0 10.72 0 5.44 0 0 Z " fill="#1B34A1" transform="translate(139,129)"/>
<path d="M0 0 C0.33 0 0.66 0 1 0 C1 3.96 1 7.92 1 12 C0.01 12.33 -0.98 12.66 -2 13 C-2.33 14.98 -2.66 16.96 -3 19 C-4.32 19 -5.64 19 -7 19 C-7 20.98 -7 22.96 -7 25 C-14.26 25 -21.52 25 -29 25 C-29 24.67 -29 24.34 -29 24 C-17 21 -17 21 -14.671875 20.58984375 C-14.12015625 20.39519531 -13.5684375 20.20054688 -13 20 C-12.67 19.01 -12.34 18.02 -12 17 C-11.01 16.67 -10.02 16.34 -9 16 C-7.45833358 14.62514468 -7.45833358 14.62514468 -6 13 C-5.50886719 12.57847656 -5.01773438 12.15695313 -4.51171875 11.72265625 C-2.59567095 9.53925295 -2.07355178 7.60302319 -1.3125 4.8125 C-1.06113281 3.91144531 -0.80976563 3.01039062 -0.55078125 2.08203125 C-0.36902344 1.39496094 -0.18726563 0.70789063 0 0 Z " fill="#DF829D" transform="translate(257,106)"/>
<path d="M0 0 C0.99 0.33 1.98 0.66 3 1 C3.33 5.95 3.66 10.9 4 16 C5.32 16 6.64 16 8 16 C8 16.66 8 17.32 8 18 C8.66 18 9.32 18 10 18 C10 19.32 10 20.64 10 22 C11.32 22 12.64 22 14 22 C14 22.66 14 23.32 14 24 C14.66 24 15.32 24 16 24 C16 24.99 16 25.98 16 27 C16.60328125 26.97679687 17.2065625 26.95359375 17.828125 26.9296875 C19.02695313 26.90261719 19.02695313 26.90261719 20.25 26.875 C21.43335938 26.84019531 21.43335938 26.84019531 22.640625 26.8046875 C25 27 25 27 29 29 C23.72 29.33 18.44 29.66 13 30 C13 28.35 13 26.7 13 25 C11.02 25 9.04 25 7 25 C7 23.02 7 21.04 7 19 C5.02 19 3.04 19 1 19 C0.17648136 12.61773055 -0.12086218 6.43255401 0 0 Z " fill="#A44080" transform="translate(192,106)"/>
<path d="M0 0 C0.33 0 0.66 0 1 0 C1.10466567 11.05967216 1.01111525 22.07542605 0.5 33.125 C-0.11023676 46.41809554 -0.10141745 59.69559107 0 73 C1.65 73.33 3.3 73.66 5 74 C5 74.33 5 74.66 5 75 C2.36 75 -0.28 75 -3 75 C-3.25547447 58.70167498 -2.44865818 42.5172594 -1.5 26.25 C-1.35495518 23.69143531 -1.21042063 21.13284164 -1.06640625 18.57421875 C-0.71680498 12.38246689 -0.36096208 6.19109941 0 0 Z " fill="#1A2076" transform="translate(64,169)"/>
<path d="M0 0 C0 1.98 0 3.96 0 6 C0.66 6 1.32 6 2 6 C2.33 7.65 2.66 9.3 3 11 C3.66386719 10.83628906 4.32773438 10.67257813 5.01171875 10.50390625 C8.62883337 9.89396143 12.15860708 9.89204487 15.8125 9.9375 C16.50537109 9.94201172 17.19824219 9.94652344 17.91210938 9.95117188 C19.60811068 9.96286844 21.30406703 9.98080076 23 10 C23 10.66 23 11.32 23 12 C20.43795456 12.33719047 17.87545682 12.66987153 15.3125 13 C14.59126953 13.09539062 13.87003906 13.19078125 13.12695312 13.2890625 C9.39007129 13.76683735 5.77708469 14.11919794 2 14 C1.67 12.68 1.34 11.36 1 10 C0.34 10 -0.32 10 -1 10 C-1 9.01 -1 8.02 -1 7 C-1.66 7 -2.32 7 -3 7 C-3 5.68 -3 4.36 -3 3 C-4.04220703 3.24556641 -4.04220703 3.24556641 -5.10546875 3.49609375 C-8.2352816 4.04095996 -11.13798083 4.09738483 -14.3125 4.0625 C-15.38113281 4.05347656 -16.44976562 4.04445313 -17.55078125 4.03515625 C-18.35902344 4.02355469 -19.16726562 4.01195313 -20 4 C-20.33 3.34 -20.66 2.68 -21 2 C-18.43795456 1.66280953 -15.87545682 1.33012847 -13.3125 1 C-12.59126953 0.90460938 -11.87003906 0.80921875 -11.12695312 0.7109375 C-7.39007129 0.23316265 -3.77708469 -0.11919794 0 0 Z " fill="#EE75C0" transform="translate(213,103)"/>
<path d="M0 0 C3.96 0.33 7.92 0.66 12 1 C12 1.99 12 2.98 12 4 C11.01 4 10.02 4 9 4 C9 5.32 9 6.64 9 8 C7.68 8 6.36 8 5 8 C5 8.99 5 9.98 5 11 C3.68 11 2.36 11 1 11 C1 12.32 1 13.64 1 15 C0.01 15 -0.98 15 -2 15 C-2 11.37 -2 7.74 -2 4 C-1.34 4 -0.68 4 0 4 C0 2.68 0 1.36 0 0 Z " fill="#D3E9FC" transform="translate(76,93)"/>
<path d="M0 0 C0.66 0 1.32 0 2 0 C3.50156874 3.00313748 3.09281204 5.79067522 3.0625 9.125 C3.05347656 10.40632812 3.04445312 11.68765625 3.03515625 13.0078125 C3.02355469 13.99523437 3.01195312 14.98265625 3 16 C-10.0448865 16.11578302 -22.9837256 15.89000167 -36 15 C-36 10.71 -36 6.42 -36 2 C-35.67 2 -35.34 2 -35 2 C-35 5.96 -35 9.92 -35 14 C-33.55109375 13.98839844 -32.1021875 13.97679687 -30.609375 13.96484375 C-10.69398635 13.85471891 -10.69398635 13.85471891 -1 15 C-1.01160156 14.00097656 -1.02320313 13.00195312 -1.03515625 11.97265625 C-1.04417969 10.68230469 -1.05320313 9.39195312 -1.0625 8.0625 C-1.07410156 6.77472656 -1.08570313 5.48695313 -1.09765625 4.16015625 C-1 1 -1 1 0 0 Z " fill="#0E1039" transform="translate(134,195)"/>
<path d="M0 0 C1.32 0.33 2.64 0.66 4 1 C2.02 1.99 2.02 1.99 0 3 C0 2.01 0 1.02 0 0 Z M-4 3 C-2.68 3.33 -1.36 3.66 0 4 C-0.99 4.495 -0.99 4.495 -2 5 C-2.33 5.99 -2.66 6.98 -3 8 C-4.5625 9.6875 -4.5625 9.6875 -6 11 C-5.34 11 -4.68 11 -4 11 C-4 12.32 -4 13.64 -4 15 C-5.32 15 -6.64 15 -8 15 C-8 19.29 -8 23.58 -8 28 C-8.99 28.33 -9.98 28.66 -11 29 C-11.08701039 25.39598519 -11.14039388 21.79223988 -11.1875 18.1875 C-11.21263672 17.16333984 -11.23777344 16.13917969 -11.26367188 15.08398438 C-11.27333984 14.10107422 -11.28300781 13.11816406 -11.29296875 12.10546875 C-11.3086792 11.19949951 -11.32438965 10.29353027 -11.34057617 9.36010742 C-10.93875073 6.57555794 -10.16311438 5.72400465 -8 4 C-8 4.99 -8 5.98 -8 7 C-6.68 7 -5.36 7 -4 7 C-4 5.68 -4 4.36 -4 3 Z " fill="#4C93F4" transform="translate(81,101)"/>
<path d="M0 0 C0.66 0.66 1.32 1.32 2 2 C5.06344297 2.47665801 5.06344297 2.47665801 8.75 2.625 C9.43650635 2.66367188 10.1230127 2.70234375 10.83032227 2.7421875 C18.18261453 3.10434549 25.54060583 3.05436318 32.89941406 2.96337891 C33.80788086 2.95483887 34.71634766 2.94629883 35.65234375 2.9375 C36.87425415 2.92009766 36.87425415 2.92009766 38.12084961 2.90234375 C40 3 40 3 41 4 C43.01594582 4.23427778 45.038474 4.41336124 47.0625 4.5625 C48.71958984 4.68818359 48.71958984 4.68818359 50.41015625 4.81640625 C51.26480469 4.87699219 52.11945313 4.93757812 53 5 C53 5.33 53 5.66 53 6 C46.25564795 6.05074705 39.51134523 6.0857534 32.7668457 6.10986328 C30.47288167 6.11991528 28.17893043 6.1335589 25.88500977 6.15087891 C22.58606812 6.17516209 19.28729603 6.18649123 15.98828125 6.1953125 C14.96414627 6.20563507 13.94001129 6.21595764 12.88484192 6.22659302 C11.92422348 6.22674408 10.96360504 6.22689514 9.97387695 6.22705078 C9.13226517 6.231492 8.29065338 6.23593323 7.42353821 6.24050903 C4.66351996 5.96660812 2.51856335 5.13415841 0 4 C0 2.68 0 1.36 0 0 Z " fill="#1C2191" transform="translate(64,238)"/>
<path d="M0 0 C0.66 0 1.32 0 2 0 C1.875 1.6875 1.875 1.6875 1 4 C-0.52994792 5.171875 -2.05989583 6.34375 -3.58984375 7.515625 C-5.31124558 9.32762693 -5.56455219 10.56149224 -6 13 C-6.60114788 16.30631336 -7.42221244 17.81879514 -10 20 C-13 22 -13 22 -15 22 C-15.226875 22.721875 -15.45375 23.44375 -15.6875 24.1875 C-17.30879421 27.66170188 -18.99922503 29.61301991 -22 32 C-25.3125 32.3125 -25.3125 32.3125 -28 32 C-27.938125 32.7425 -27.87625 33.485 -27.8125 34.25 C-28.03664476 37.53745648 -28.7334976 38.65255109 -31 41 C-34.68678362 43.50807636 -38.46153678 43.23038757 -42.75 43.125 C-43.44738281 43.11597656 -44.14476562 43.10695313 -44.86328125 43.09765625 C-46.57566958 43.07419888 -48.28788004 43.03833104 -50 43 C-50 42.67 -50 42.34 -50 42 C-49.20335937 41.93941406 -48.40671875 41.87882812 -47.5859375 41.81640625 C-39.75667303 41.20332134 -39.75667303 41.20332134 -32 40 C-31.86464844 39.37351562 -31.72929687 38.74703125 -31.58984375 38.1015625 C-30.91930229 35.55591408 -30.22833906 33.33212626 -29 31 C-25.5625 29.6875 -25.5625 29.6875 -22 29 C-19.4549493 26.94982027 -18.08031446 25.13814088 -16.4375 22.3125 C-15 20 -15 20 -12 19 C-11.34 18.01 -10.68 17.02 -10 16 C-9.34 16 -8.68 16 -8 16 C-7.99742187 15.39671875 -7.99484375 14.7934375 -7.9921875 14.171875 C-7.87051851 11.65738251 -7.66470298 9.43163497 -7 7 C-4 4.625 -4 4.625 -1 3 C-0.67 2.01 -0.34 1.02 0 0 Z " fill="#D3D3D3" transform="translate(199,229)"/>
<path d="M0 0 C0.66 0 1.32 0 2 0 C2 1.98 2 3.96 2 6 C3.98 6 5.96 6 8 6 C8 7.65 8 9.3 8 11 C9.98 11 11.96 11 14 11 C14.8076011 15.27059463 15.16226596 19.34219839 15.1875 23.6875 C15.20167969 24.80511719 15.21585937 25.92273438 15.23046875 27.07421875 C15 30 15 30 13 33 C12.66361334 30.41703099 12.3307835 27.83368737 12 25.25 C11.90460938 24.52039063 11.80921875 23.79078125 11.7109375 23.0390625 C11.27978452 19.65143196 11 16.42145141 11 13 C9.35 12.67 7.7 12.34 6 12 C6 10.68 6 9.36 6 8 C3.03 7.505 3.03 7.505 0 7 C0 4.69 0 2.38 0 0 Z " fill="#E270C4" transform="translate(242,81)"/>
<path d="M0 0 C4.62 0 9.24 0 14 0 C14 0.33 14 0.66 14 1 C10.04 1 6.08 1 2 1 C2.33 1.66 2.66 2.32 3 3 C3.09932251 5.55317274 3.14198538 8.07229864 3.125 10.625 C3.12089111 11.34905029 3.11678223 12.07310059 3.11254883 12.8190918 C2.97535914 25.92587032 2.97535914 25.92587032 0.45703125 28.69921875 C-0.02378906 29.12847656 -0.50460938 29.55773437 -1 30 C-1.17707265 19.96588331 -0.62277469 10.00887894 0 0 Z " fill="#254F90" transform="translate(68,89)"/>
<path d="M0 0 C-1.375 2.0625 -1.375 2.0625 -4 4 C-7.40060685 4.05863115 -10.65559323 3.58718592 -14 3 C-14 2.34 -14 1.68 -14 1 C-16.64 1.33 -19.28 1.66 -22 2 C-21.01 1.67 -20.02 1.34 -19 1 C-19 0.34 -19 -0.32 -19 -1 C-19.66 -1.33 -20.32 -1.66 -21 -2 C-19.10507254 -2.19644384 -17.20899097 -2.38177288 -15.3125 -2.5625 C-13.72888672 -2.71912109 -13.72888672 -2.71912109 -12.11328125 -2.87890625 C-7.48779148 -3.05881865 -4.03167236 -2.23981798 0 0 Z " fill="#DF4FD9" transform="translate(226,44)"/>
<path d="M0 0 C-0.33 0.99 -0.66 1.98 -1 3 C-0.814375 3.825 -0.62875 4.65 -0.4375 5.5 C0 8 0 8 -2 11 C-4.625 11.1875 -4.625 11.1875 -7 11 C-7 11.99 -7 12.98 -7 14 C-7.99 14 -8.98 14 -10 14 C-10 13.01 -10 12.02 -10 11 C-9.34 11 -8.68 11 -8 11 C-8.33 7.7 -8.66 4.4 -9 1 C-5.8035914 -0.06546953 -3.34252724 -0.07427838 0 0 Z " fill="#CF60C6" transform="translate(207,43)"/>
<path d="M0 0 C0.66 0.33 1.32 0.66 2 1 C-3.75 5.875 -3.75 5.875 -6 7 C-5.01774924 8.65879228 -5.01774924 8.65879228 -3 10 C-0.18872957 10.21714241 2.3883345 10.28284276 5.1875 10.1875 C5.93708984 10.17396484 6.68667969 10.16042969 7.45898438 10.14648438 C9.30629767 10.11118539 11.15324066 10.05737917 13 10 C12.01 11.485 12.01 11.485 11 13 C8.03471821 13.0562279 5.31149974 12.95683804 2.375 12.6875 C1.57320312 12.62626953 0.77140625 12.56503906 -0.0546875 12.50195312 C-2.03758124 12.34851492 -4.01898519 12.17604307 -6 12 C-6 11.01 -6 10.02 -6 9 C-6.66 9 -7.32 9 -8 9 C-8 8.34 -8 7.68 -8 7 C-9.32 7 -10.64 7 -12 7 C-10.54312306 4.08624612 -8.49246097 3.64222221 -5.5625 2.3125 C-4.57378906 1.85488281 -3.58507812 1.39726563 -2.56640625 0.92578125 C-1.29603516 0.46751953 -1.29603516 0.46751953 0 0 Z " fill="#F085A8" transform="translate(214,121)"/>
<path d="M0 0 C0 1.65 0 3.3 0 5 C1.98 5 3.96 5 6 5 C7.06723961 8.46222615 7.10173486 11.64039266 7.0625 15.25 C7.05347656 16.32765625 7.04445312 17.4053125 7.03515625 18.515625 C7.02355469 19.33546875 7.01195312 20.1553125 7 21 C6.34 21 5.68 21 5 21 C3.99503148 17.98509443 3.89664697 15.95818308 3.9375 12.8125 C3.94652344 11.91144531 3.95554688 11.01039062 3.96484375 10.08203125 C3.97644531 9.39496094 3.98804688 8.70789062 4 8 C2.35 8 0.7 8 -1 8 C-1.33 6.35 -1.66 4.7 -2 3 C-2.99 3 -3.98 3 -5 3 C-5 2.34 -5 1.68 -5 1 C-3 0 -3 0 0 0 Z " fill="#EA7BC7" transform="translate(245,45)"/>
<path d="M0 0 C0.33 0 0.66 0 1 0 C1 2.31 1 4.62 1 7 C1.66 7 2.32 7 3 7 C3 13.93 3 20.86 3 28 C2.01 27.67 1.02 27.34 0 27 C0 18.09 0 9.18 0 0 Z " fill="#5062E7" transform="translate(176,185)"/>
<path d="M0 0 C0 2.97 0 5.94 0 9 C0.66 9 1.32 9 2 9 C2 11.97 2 14.94 2 18 C1.01 18.33 0.02 18.66 -1 19 C-1.66 13.06 -2.32 7.12 -3 1 C-5.64 1 -8.28 1 -11 1 C-6.8204355 -1.78637633 -4.85331323 -0.79562512 0 0 Z " fill="#9D3483" transform="translate(237,93)"/>
<path d="M0 0 C0 2.64 0 5.28 0 8 C-0.66 8 -1.32 8 -2 8 C-2 6.68 -2 5.36 -2 4 C-6.95 4 -11.9 4 -17 4 C-17.33 3.34 -17.66 2.68 -18 2 C-11.93184478 0.77100654 -6.20104812 -0.27560214 0 0 Z " fill="#DF64D9" transform="translate(239,39)"/>
<path d="M0 0 C2.64 0.33 5.28 0.66 8 1 C8.08097324 3.27024968 8.13917704 5.54132075 8.1875 7.8125 C8.22230469 9.07707031 8.25710937 10.34164062 8.29296875 11.64453125 C8 15 8 15 5 18 C5 13.05 5 8.1 5 3 C3.35 3 1.7 3 0 3 C0 2.01 0 1.02 0 0 Z " fill="#63A0F5" transform="translate(174,129)"/>
<path d="M0 0 C0.99 0 1.98 0 3 0 C3.05790353 3.29159316 3.09356261 6.58305603 3.125 9.875 C3.15013672 11.28072266 3.15013672 11.28072266 3.17578125 12.71484375 C3.18222656 13.61074219 3.18867187 14.50664062 3.1953125 15.4296875 C3.20578613 16.25710449 3.21625977 17.08452148 3.22705078 17.93701172 C3 20 3 20 1 22 C0.16788724 16.96145894 -0.1078534 12.1874338 -0.0625 7.0625 C-0.05798828 6.37865234 -0.05347656 5.69480469 -0.04882812 4.99023438 C-0.0371956 3.32678396 -0.01926694 1.6633795 0 0 Z " fill="#5E88E4" transform="translate(99,127)"/>
<path d="M0 0 C0.33 0 0.66 0 1 0 C1 1.98 1 3.96 1 6 C7.93 6.33 14.86 6.66 22 7 C22 5.02 22 3.04 22 1 C22.33 1 22.66 1 23 1 C23 3.31 23 5.62 23 8 C20.27123692 8.33695862 17.54206837 8.66968429 14.8125 9 C13.65911133 9.14308594 13.65911133 9.14308594 12.48242188 9.2890625 C8.63071189 9.75192894 4.88829149 10.12467468 1 10 C-0.60725635 6.78548731 -0.05748185 3.56387464 0 0 Z " fill="#893376" transform="translate(187,65)"/>
<path d="M0 0 C0.33 0 0.66 0 1 0 C2.35474495 7.28175409 3.36127237 15.91618289 1 23 C0.34 23 -0.32 23 -1 23 C-1.02911321 19.9166866 -1.04683682 16.83340875 -1.0625 13.75 C-1.07087891 12.87730469 -1.07925781 12.00460938 -1.08789062 11.10546875 C-1.09111328 10.26113281 -1.09433594 9.41679687 -1.09765625 8.546875 C-1.10551147 7.38430176 -1.10551147 7.38430176 -1.11352539 6.19824219 C-1.00036998 4.00716402 -0.60552448 2.10362139 0 0 Z " fill="#5C74F4" transform="translate(178,169)"/>
<path d="M0 0 C0.33 0 0.66 0 1 0 C1.33865898 3.52034206 1.66996095 7.04134018 2 10.5625 C2.14308594 12.0484668 2.14308594 12.0484668 2.2890625 13.56445312 C3.61121324 27.77757353 3.61121324 27.77757353 2 31 C1.34 31 0.68 31 0 31 C0 20.77 0 10.54 0 0 Z " fill="#567EF5" transform="translate(98,127)"/>
<path d="M0 0 C0.99 0.33 1.98 0.66 3 1 C2.67 1.33 2.34 1.66 2 2 C1.75428613 5.55830081 1.61560863 9.11571564 1.4765625 12.6796875 C0.96846654 16.2197003 0.63321258 16.83376108 -2 19 C-2.66 20.32 -3.32 21.64 -4 23 C-4 16.07 -4 9.14 -4 2 C-3.67 2 -3.34 2 -3 2 C-3 5.96 -3 9.92 -3 14 C-2.34 13.67 -1.68 13.34 -1 13 C-0.53045739 9.95418731 -0.53045739 9.95418731 -0.375 6.4375 C-0.30023438 5.23996094 -0.22546875 4.04242188 -0.1484375 2.80859375 C-0.09945312 1.88175781 -0.05046875 0.95492187 0 0 Z " fill="#497EEE" transform="translate(73,116)"/>
<path d="M0 0 C0 1.65 0 3.3 0 5 C-10.395 5.495 -10.395 5.495 -21 6 C-21 5.67 -21 5.34 -21 5 C-20.18015625 4.80664062 -19.3603125 4.61328125 -18.515625 4.4140625 C-17.43796875 4.15367187 -16.3603125 3.89328125 -15.25 3.625 C-13.64898437 3.24214844 -13.64898437 3.24214844 -12.015625 2.8515625 C-1.60221465 -0.08901193 -1.60221465 -0.08901193 0 0 Z " fill="#F3A0A7" transform="translate(249,125)"/>
<path d="M0 0 C0.99 0 1.98 0 3 0 C3 0.99 3 1.98 3 3 C2.01 3 1.02 3 0 3 C0 7.29 0 11.58 0 16 C-0.99 16.33 -1.98 16.66 -3 17 C-3 12.05 -3 7.1 -3 2 C-2.01 2 -1.02 2 0 2 C0 1.34 0 0.68 0 0 Z " fill="#88B2FB" transform="translate(73,113)"/>
<path d="M0 0 C2.39614126 -0.05425226 4.79103853 -0.09379027 7.1875 -0.125 C8.19780273 -0.15013672 8.19780273 -0.15013672 9.22851562 -0.17578125 C13.28807807 -0.21538674 16.34998815 0.19979998 20 2 C20 2.33 20 2.66 20 3 C17.04160645 3.02689449 14.08345573 3.04678741 11.125 3.0625 C9.86236328 3.07506836 9.86236328 3.07506836 8.57421875 3.08789062 C7.76855469 3.09111328 6.96289062 3.09433594 6.1328125 3.09765625 C5.01737061 3.10551147 5.01737061 3.10551147 3.87939453 3.11352539 C2 3 2 3 0 2 C0 1.34 0 0.68 0 0 Z " fill="#82C5F2" transform="translate(133,93)"/>
<path d="M0 0 C0 0.66 0 1.32 0 2 C-2.35344806 2.33923576 -4.7075484 2.67150534 -7.0625 3 C-8.04766602 3.14308594 -8.04766602 3.14308594 -9.05273438 3.2890625 C-13.40138763 3.88887674 -17.61329071 4.09127093 -22 4 C-22 3.34 -22 2.68 -22 2 C-14.58856436 0.57374434 -7.55137932 -0.30071865 0 0 Z " fill="#BF45A2" transform="translate(231,56)"/>
<path d="M0 0 C6.27 0 12.54 0 19 0 C18.34 2.31 17.68 4.62 17 7 C16.01 6.67 15.02 6.34 14 6 C14 5.01 14 4.02 14 3 C11.69 3 9.38 3 7 3 C7 2.34 7 1.68 7 1 C4.69 1 2.38 1 0 1 C0 0.67 0 0.34 0 0 Z " fill="#54ADF6" transform="translate(74,91)"/>
<path d="M0 0 C0.66 0 1.32 0 2 0 C4.29612756 11.52164009 4.29612756 11.52164009 4 17 C3.01 17 2.02 17 1 17 C-0.22517308 11.33357449 -0.09228867 5.76291482 0 0 Z " fill="#B33995" transform="translate(231,58)"/>
<path d="M0 0 C0.33 0 0.66 0 1 0 C1.1963696 2.37456165 1.38231294 4.74920019 1.5625 7.125 C1.61857422 7.79015625 1.67464844 8.4553125 1.73242188 9.140625 C2.03753223 13.29012582 1.81402688 16.92986558 1 21 C0.79893943 22.62337793 0.61002434 24.24834189 0.4375 25.875 C0.35371094 26.65617187 0.26992187 27.43734375 0.18359375 28.2421875 C0.12300781 28.82226562 0.06242187 29.40234375 0 30 C-0.33 30 -0.66 30 -1 30 C-1.02925502 26.31251691 -1.04688418 22.62506408 -1.0625 18.9375 C-1.07087891 17.89916016 -1.07925781 16.86082031 -1.08789062 15.79101562 C-1.10496442 10.41276931 -0.95415152 5.29666789 0 0 Z " fill="#2532B8" transform="translate(65,205)"/>
<path d="M0 0 C1.02158203 0.00322266 2.04316406 0.00644531 3.09570312 0.00976562 C4.15080078 0.01814453 5.20589844 0.02652344 6.29296875 0.03515625 C7.36740234 0.03966797 8.44183594 0.04417969 9.54882812 0.04882812 C12.19276558 0.06057896 14.83658827 0.07700838 17.48046875 0.09765625 C17.48046875 0.42765625 17.48046875 0.75765625 17.48046875 1.09765625 C13.37782404 1.49076137 9.27332311 1.85903274 5.16796875 2.22265625 C4.00072266 2.33480469 2.83347656 2.44695312 1.63085938 2.5625 C0.51259766 2.65917969 -0.60566406 2.75585938 -1.7578125 2.85546875 C-3.30529175 2.99686279 -3.30529175 2.99686279 -4.8840332 3.14111328 C-7.51953125 3.09765625 -7.51953125 3.09765625 -10.51953125 1.09765625 C-6.94603084 0.27867003 -3.66293646 -0.02046333 0 0 Z " fill="#B25B85" transform="translate(232.51953125,130.90234375)"/>
<path d="M0 0 C0.66 0 1.32 0 2 0 C2 0.99 2 1.98 2 3 C2.90492188 2.96519531 2.90492188 2.96519531 3.828125 2.9296875 C5.02695313 2.90261719 5.02695313 2.90261719 6.25 2.875 C7.03890625 2.85179687 7.8278125 2.82859375 8.640625 2.8046875 C11 3 11 3 15 5 C7.08 5.495 7.08 5.495 -1 6 C-0.67 4.02 -0.34 2.04 0 0 Z " fill="#AE5982" transform="translate(206,130)"/>
<path d="M0 0 C1.258125 -0.020625 2.51625 -0.04125 3.8125 -0.0625 C4.52019531 -0.07410156 5.22789062 -0.08570312 5.95703125 -0.09765625 C8 0 8 0 11 1 C11 4.3 11 7.6 11 11 C10.34 10.67 9.68 10.34 9 10 C9 7.69 9 5.38 9 3 C6.03 2.67 3.06 2.34 0 2 C0 1.34 0 0.68 0 0 Z " fill="#82C0F3" transform="translate(155,105)"/>
<path d="M0 0 C0.33 0 0.66 0 1 0 C1 2.31 1 4.62 1 7 C-2.3 7 -5.6 7 -9 7 C-9 5.68 -9 4.36 -9 3 C-6.03 3.33 -3.06 3.66 0 4 C0 2.68 0 1.36 0 0 Z " fill="#20268C" transform="translate(169,221)"/>
<path d="M0 0 C3.96 0.33 7.92 0.66 12 1 C12 1.99 12 2.98 12 4 C11.01 4 10.02 4 9 4 C9 5.32 9 6.64 9 8 C7.68 8 6.36 8 5 8 C5 8.99 5 9.98 5 11 C3.68 10.67 2.36 10.34 1 10 C1.99 10 2.98 10 4 10 C4 9.01 4 8.02 4 7 C5.32 7 6.64 7 8 7 C8 5.35 8 3.7 8 2 C5.36 2.33 2.72 2.66 0 3 C0 2.01 0 1.02 0 0 Z " fill="#9ACBF3" transform="translate(76,93)"/>
<path d="M0 0 C2 2 2 2 2.1953125 5.2578125 C2.17210937 6.53398437 2.14890625 7.81015625 2.125 9.125 C2.10695312 10.40632812 2.08890625 11.68765625 2.0703125 13.0078125 C2.04710937 13.99523437 2.02390625 14.98265625 2 16 C1.01 16 0.02 16 -1 16 C-0.67 10.72 -0.34 5.44 0 0 Z " fill="#1C258F" transform="translate(135,195)"/>
<path d="M0 0 C1.50433594 0.01353516 1.50433594 0.01353516 3.0390625 0.02734375 C3.80992187 0.03894531 4.58078125 0.05054688 5.375 0.0625 C4.19921875 2.078125 4.19921875 2.078125 2.375 4.0625 C-0.10546875 4.234375 -0.10546875 4.234375 -2.8125 3.8125 C-3.71355469 3.68359375 -4.61460937 3.5546875 -5.54296875 3.421875 C-6.57357422 3.24398437 -6.57357422 3.24398437 -7.625 3.0625 C-7.625 2.4025 -7.625 1.7425 -7.625 1.0625 C-4.98041621 -0.25979189 -2.94738699 -0.03427194 0 0 Z " fill="#D139CA" transform="translate(219.625,43.9375)"/>
<path d="M0 0 C2.05893621 0.22325814 4.12233653 0.40705759 6.1875 0.5625 C7.27417969 0.64628906 8.36085938 0.73007813 9.48046875 0.81640625 C10.72763672 0.90728516 10.72763672 0.90728516 12 1 C12 1.33 12 1.66 12 2 C1.28907291 2.15498126 -9.31485445 1.67842194 -20 1 C-20 0.67 -20 0.34 -20 0 C-17.22949974 -0.1946838 -14.45886998 -0.38102792 -11.6875 -0.5625 C-10.90181641 -0.61857422 -10.11613281 -0.67464844 -9.30664062 -0.73242188 C-8.1706543 -0.80493164 -8.1706543 -0.80493164 -7.01171875 -0.87890625 C-6.31522217 -0.9260376 -5.61872559 -0.97316895 -4.90112305 -1.02172852 C-3 -1 -3 -1 0 0 Z " fill="#242BA7" transform="translate(105,242)"/>
<path d="M0 0 C0.66 0 1.32 0 2 0 C3.48725585 6.68650564 4.27567351 12.23893038 3 19 C2.67 19 2.34 19 2 19 C1.66440045 16.39610703 1.33143142 13.7919239 1 11.1875 C0.90460938 10.44951172 0.80921875 9.71152344 0.7109375 8.95117188 C0.33015323 5.94569605 0 3.03285559 0 0 Z " fill="#F575CA" transform="translate(253,95)"/>
<path d="M0 0 C1.65 0 3.3 0 5 0 C5 0.99 5 1.98 5 3 C4.34 3 3.68 3 3 3 C3 3.99 3 4.98 3 6 C2.01 6 1.02 6 0 6 C0 6.99 0 7.98 0 9 C-0.99 9 -1.98 9 -3 9 C-3 8.01 -3 7.02 -3 6 C-2.34 6 -1.68 6 -1 6 C-0.67 4.02 -0.34 2.04 0 0 Z " fill="#FBE7F9" transform="translate(200,48)"/>
<path d="M0 0 C3.63 0 7.26 0 11 0 C11 0.99 11 1.98 11 3 C7.37 3 3.74 3 0 3 C0 2.01 0 1.02 0 0 Z " fill="#181A6D" transform="translate(149,235)"/>
<path d="M0 0 C0.99 0 1.98 0 3 0 C3.33 3.96 3.66 7.92 4 12 C3.01 11.67 2.02 11.34 1 11 C0.67 7.37 0.34 3.74 0 0 Z " fill="#BB429D" transform="translate(187,60)"/>
<path d="M0 0 C0.33 0 0.66 0 1 0 C1.08710289 3.10398978 1.14042309 6.20766548 1.1875 9.3125 C1.21263672 10.19357422 1.23777344 11.07464844 1.26367188 11.98242188 C1.27333984 12.82998047 1.28300781 13.67753906 1.29296875 14.55078125 C1.3086792 15.33106689 1.32438965 16.11135254 1.34057617 16.9152832 C1 19 1 19 -2 22 C-1.34 14.74 -0.68 7.48 0 0 Z " fill="#1F4FA6" transform="translate(69,97)"/>
<path d="M0 0 C0.99 0 1.98 0 3 0 C3 2.97 3 5.94 3 9 C2.01 9 1.02 9 0 9 C0 6.03 0 3.06 0 0 Z " fill="#5156E3" transform="translate(145,237)"/>
<path d="M0 0 C7.51869512 -0.59672183 11.74031045 0.85647028 18 5 C13.82412255 6.39195915 11.86525224 4.82323219 8 3 C8 2.34 8 1.68 8 1 C5.36 1 2.72 1 0 1 C0 0.67 0 0.34 0 0 Z " fill="#CDCDCD" transform="translate(234,27)"/>
<path d="M0 0 C0.33 0 0.66 0 1 0 C1 3.96 1 7.92 1 12 C-0.32 12.33 -1.64 12.66 -3 13 C-2.17812739 8.61667943 -1.09845718 4.32059823 0 0 Z " fill="#D46FA6" transform="translate(257,106)"/>
<path d="M0 0 C0.79921875 0.00902344 1.5984375 0.01804688 2.421875 0.02734375 C3.02515625 0.03894531 3.6284375 0.05054688 4.25 0.0625 C3.26 1.5475 3.26 1.5475 2.25 3.0625 C-4.89893617 3.62987589 -4.89893617 3.62987589 -8.75 1.0625 C-5.75519083 0.1901588 -3.11424089 -0.04579766 0 0 Z " fill="#D67697" transform="translate(222.75,130.9375)"/>
<path d="M0 0 C0.66 0 1.32 0 2 0 C2 3.63 2 7.26 2 11 C1.01 11 0.02 11 -1 11 C-0.67 7.37 -0.34 3.74 0 0 Z " fill="#5662F4" transform="translate(167,214)"/>
<path d="M0 0 C-0.33 1.32 -0.66 2.64 -1 4 C-1.33 3.67 -1.66 3.34 -2 3 C-4.34987262 2.76472227 -6.70556039 2.58613583 -9.0625 2.4375 C-10.35285156 2.35371094 -11.64320313 2.26992187 -12.97265625 2.18359375 C-14.47119141 2.09271484 -14.47119141 2.09271484 -16 2 C-16 1.67 -16 1.34 -16 1 C-14.27111445 0.83044205 -12.54187557 0.66448486 -10.8125 0.5 C-9.84957031 0.4071875 -8.88664063 0.314375 -7.89453125 0.21875 C-5.24812333 0.01875156 -2.65239135 -0.03879183 0 0 Z " fill="#C36AA3" transform="translate(213,103)"/>
<path d="M0 0 C2.0625 0.4375 2.0625 0.4375 4 1 C3.01 1.495 3.01 1.495 2 2 C2 3.98 2 5.96 2 8 C1.01 8 0.02 8 -1 8 C-1.04241723 5.66705225 -1.04092937 3.33297433 -1 1 C-0.67 0.67 -0.34 0.34 0 0 Z " fill="#A13D97" transform="translate(197,43)"/>
<path d="M0 0 C2.64 0 5.28 0 8 0 C7.67 0.99 7.34 1.98 7 3 C4.36 3.33 1.72 3.66 -1 4 C-0.01 3.67 0.98 3.34 2 3 C2 2.34 2 1.68 2 1 C1.34 0.67 0.68 0.34 0 0 Z " fill="#CD50C9" transform="translate(205,42)"/>
<path d="M0 0 C2.8125 -0.1875 2.8125 -0.1875 6 0 C6.99 0.99 7.98 1.98 9 3 C6.03 3 3.06 3 0 3 C0 2.01 0 1.02 0 0 Z " fill="#1A207B" transform="translate(170,211)"/>
<path d="M0 0 C0.99 0 1.98 0 3 0 C3 2.31 3 4.62 3 7 C2.01 7 1.02 7 0 7 C0 4.69 0 2.38 0 0 Z " fill="#4B50DA" transform="translate(157,228)"/>
<path d="M0 0 C0.33 0 0.66 0 1 0 C1 2.97 1 5.94 1 9 C0.34 9 -0.32 9 -1 9 C-1.625 6.1875 -1.625 6.1875 -2 3 C-1.34 2.01 -0.68 1.02 0 0 Z " fill="#6189E2" transform="translate(181,144)"/>
<path d="M0 0 C0.99 0 1.98 0 3 0 C2.67 2.97 2.34 5.94 2 9 C1.34 9 0.68 9 0 9 C0 6.03 0 3.06 0 0 Z " fill="#ED7BC4" transform="translate(207,61)"/>
<path d="M0 0 C0 0.66 0 1.32 0 2 C-2.64 2.33 -5.28 2.66 -8 3 C-8.33 2.34 -8.66 1.68 -9 1 C-5.8035914 -0.06546953 -3.34252724 -0.07427838 0 0 Z " fill="#E865E1" transform="translate(207,43)"/>
<path d="M0 0 C2.97 0.33 5.94 0.66 9 1 C9 1.66 9 2.32 9 3 C6.36 3 3.72 3 1 3 C0.67 2.01 0.34 1.02 0 0 Z " fill="#5161ED" transform="translate(136,195)"/>
<path d="M0 0 C0.8353125 0.556875 0.8353125 0.556875 1.6875 1.125 C1.6875 1.455 1.6875 1.785 1.6875 2.125 C-0.9525 2.125 -3.5925 2.125 -6.3125 2.125 C-6.6425 3.115 -6.9725 4.105 -7.3125 5.125 C-7.3125 3.805 -7.3125 2.485 -7.3125 1.125 C-2.88173077 -1.09038462 -2.88173077 -1.09038462 0 0 Z " fill="#2830B5" transform="translate(155.3125,232.875)"/>
<path d="M0 0 C0.495 0.144375 0.99 0.28875 1.5 0.4375 C4.97752922 1.21994407 8.45955123 1.58694764 12 2 C12 2.33 12 2.66 12 3 C8.37 3 4.74 3 1 3 C0.67 2.01 0.34 1.02 0 0 Z " fill="#DD5BC3" transform="translate(218,78)"/>
<path d="M0 0 C0.33 0 0.66 0 1 0 C1 2.64 1 5.28 1 8 C0.01 7.67 -0.98 7.34 -2 7 C-2 5.35 -2 3.7 -2 2 C-1.34 2 -0.68 2 0 2 C0 1.34 0 0.68 0 0 Z " fill="#E06FC0" transform="translate(252,64)"/>
<path d="M0 0 C1.3921875 0.0928125 1.3921875 0.0928125 2.8125 0.1875 C2.8125 0.8475 2.8125 1.5075 2.8125 2.1875 C-1.6425 2.6825 -1.6425 2.6825 -6.1875 3.1875 C-3.1875 0.1875 -3.1875 0.1875 0 0 Z " fill="#AD3C8F" transform="translate(228.1875,55.8125)"/>
<path d="M0 0 C1.32 0.33 2.64 0.66 4 1 C3.34 1 2.68 1 2 1 C2.33 2.65 2.66 4.3 3 6 C2.01 6 1.02 6 0 6 C0 4.02 0 2.04 0 0 Z " fill="#AF419A" transform="translate(192,51)"/>
<path d="M0 0 C0 1.65 0 3.3 0 5 C-0.66 5 -1.32 5 -2 5 C-2 4.34 -2 3.68 -2 3 C-2.99 3 -3.98 3 -5 3 C-5 2.34 -5 1.68 -5 1 C-3 0 -3 0 0 0 Z " fill="#EE7ED9" transform="translate(245,45)"/>
</svg>
